<?xml version="1.0" standalone="no"?>
<!DOCTYPE svg PUBLIC "-//W3C//DTD SVG 20010904//EN"
 "http://www.w3.org/TR/2001/REC-SVG-20010904/DTD/svg10.dtd">
<svg version="1.0" xmlns="http://www.w3.org/2000/svg"
 width="1280.000000pt" height="720.000000pt" viewBox="0 0 1280.000000 720.000000"
 preserveAspectRatio="xMidYMid meet">
<metadata>
Created by potrace 1.15, written by Peter Selinger 2001-2017
</metadata>
<g transform="translate(0.000000,720.000000) scale(0.100000,-0.100000)"
fill="#ffb74d" stroke="none">
<path d="M4365 5983 c-212 -29 -389 -179 -449 -382 -14 -49 -16 -249 -16
-2001 0 -1752 2 -1952 16 -2001 53 -182 201 -327 379 -374 52 -13 288 -15
1995 -14 1796 0 1940 1 2001 17 87 23 168 73 238 147 66 72 104 138 128 226
17 60 18 180 18 2004 l0 1940 -22 70 c-52 165 -177 291 -343 348 l-65 22
-1925 1 c-1059 1 -1938 -1 -1955 -3z m2229 -339 c663 -91 1257 -527 1550
-1139 196 -407 251 -862 161 -1313 -35 -172 -84 -314 -170 -487 -116 -236
-251 -423 -428 -591 -806 -768 -2081 -750 -2872 41 -309 309 -517 716 -579
1137 -125 837 247 1636 964 2074 411 251 879 345 1374 278z"/>
<path d="M5842 5391 c-9 -5 -20 -125 -37 -402 -14 -217 -25 -397 -25 -401 0
-5 -7 -8 -15 -8 -13 0 -15 52 -15 405 0 346 -2 405 -14 405 -8 0 -17 -4 -21
-9 -16 -28 -121 -608 -130 -726 -12 -153 24 -269 113 -361 25 -26 60 -80 78
-120 l34 -73 0 -1153 c0 -1028 2 -1156 16 -1176 13 -19 24 -22 89 -22 l75 0
15 36 c13 32 15 184 15 1205 0 784 3 1177 10 1195 6 15 39 57 73 94 76 80 96
120 110 216 13 92 3 187 -58 564 -55 348 -52 330 -73 330 -16 0 -17 -27 -15
-405 l3 -405 -25 0 c-19 0 -25 5 -25 23 0 63 -42 782 -46 786 -2 2 -7 2 -10
-1 -6 -6 -23 -517 -24 -700 0 -107 0 -108 -24 -108 -32 0 -34 14 -42 448 -4
199 -10 364 -13 367 -4 2 -12 0 -19 -4z"/>
<path d="M6464 5381 c-12 -5 -32 -31 -45 -58 l-24 -48 -5 -580 c-4 -436 -2
-586 7 -605 6 -14 32 -50 58 -80 52 -63 77 -110 108 -207 21 -68 22 -75 27
-1045 l5 -976 24 -26 c52 -56 154 -38 191 33 17 35 17 93 -3 1806 -11 974 -23
1773 -26 1776 -10 11 -294 19 -317 10z"/>
</g>
</svg>
